<svg xmlns="http://www.w3.org/2000/svg">

  <!-- ================= MENU ================= -->
 <symbol id="bars" viewBox="0 0 24 24">
 <svg xmlns="http://www.w3.org/2000/svg" width="24" height="24" viewBox="0 0 24 24" fill="none" stroke="currentColor" stroke-width="2" stroke-linecap="round" stroke-linejoin="round" class="icon icon-tabler icons-tabler-outline icon-tabler-menu-2"><path stroke="none" d="M0 0h24v24H0z" fill="none"/><path d="M4 6l16 0" /><path d="M4 12l16 0" /><path d="M4 18l16 0" /></svg>
 </symbol>
 <!-- INSTAGRAM -->
 <symbol id="instagram">
 <svg xmlns:xlink="http://www.w3.org/1999/xlink" viewBox="0 0 264.583 264.583"><defs><radialGradient xlink:href="#instagram_icon__a" id="instagram_icon__f" cx="158.429" cy="578.088" r="52.352" fx="158.429" fy="578.088" gradientTransform="matrix(0 -4.03418 4.28018 0 -2332.227 942.236)" gradientUnits="userSpaceOnUse"/><radialGradient xlink:href="#instagram_icon__b" id="instagram_icon__g" cx="172.615" cy="600.692" r="65" fx="172.615" fy="600.692" gradientTransform="matrix(.67441 -1.16203 1.51283 .87801 -814.366 -47.835)" gradientUnits="userSpaceOnUse"/><radialGradient xlink:href="#instagram_icon__c" id="instagram_icon__h" cx="144.012" cy="51.337" r="67.081" fx="144.012" fy="51.337" gradientTransform="matrix(-2.3989 .67549 -.23008 -.81732 464.996 -26.404)" gradientUnits="userSpaceOnUse"/><radialGradient xlink:href="#instagram_icon__d" id="instagram_icon__e" cx="199.788" cy="628.438" r="52.352" fx="199.788" fy="628.438" gradientTransform="matrix(-3.10797 .87652 -.6315 -2.23914 1345.65 1374.198)" gradientUnits="userSpaceOnUse"/><linearGradient id="instagram_icon__d"><stop offset="0" stop-color="#ff005f"/><stop offset="1" stop-color="#fc01d8"/></linearGradient><linearGradient id="instagram_icon__c"><stop offset="0" stop-color="#780cff"/><stop offset="1" stop-color="#820bff" stop-opacity="0"/></linearGradient><linearGradient id="instagram_icon__b"><stop offset="0" stop-color="#fc0"/><stop offset="1" stop-color="#fc0" stop-opacity="0"/></linearGradient><linearGradient id="instagram_icon__a"><stop offset="0" stop-color="#fc0"/><stop offset=".124" stop-color="#fc0"/><stop offset=".567" stop-color="#fe4a05"/><stop offset=".694" stop-color="#ff0f3f"/><stop offset="1" stop-color="#fe0657" stop-opacity="0"/></linearGradient></defs><path fill="url(#instagram_icon__e)" d="M204.15 18.143c-55.23 0-71.383.057-74.523.317-11.334.943-18.387 2.728-26.07 6.554-5.922 2.942-10.592 6.351-15.201 11.13-8.394 8.716-13.481 19.439-15.323 32.184-.895 6.188-1.156 7.45-1.209 39.056-.02 10.536 0 24.4 0 42.999 0 55.2.062 71.341.326 74.476.916 11.032 2.645 17.973 6.308 25.565 7 14.533 20.37 25.443 36.12 29.514 5.453 1.404 11.476 2.178 19.208 2.544 3.277.142 36.669.244 70.081.244 33.413 0 66.826-.04 70.02-.203 8.954-.422 14.153-1.12 19.901-2.606 15.852-4.09 28.977-14.838 36.12-29.575 3.591-7.409 5.412-14.614 6.236-25.07.18-2.28.255-38.626.255-74.924 0-36.304-.082-72.583-.26-74.863-.835-10.625-2.656-17.77-6.364-25.32-3.042-6.182-6.42-10.799-11.324-15.519-8.752-8.361-19.455-13.45-32.21-15.29-6.18-.894-7.41-1.158-39.033-1.213z" transform="translate(-71.816 -18.143)"/><path fill="url(#instagram_icon__f)" d="M204.15 18.143c-55.23 0-71.383.057-74.523.317-11.334.943-18.387 2.728-26.07 6.554-5.922 2.942-10.592 6.351-15.201 11.13-8.394 8.716-13.481 19.439-15.323 32.184-.895 6.188-1.156 7.45-1.209 39.056-.02 10.536 0 24.4 0 42.999 0 55.2.062 71.341.326 74.476.916 11.032 2.645 17.973 6.308 25.565 7 14.533 20.37 25.443 36.12 29.514 5.453 1.404 11.476 2.178 19.208 2.544 3.277.142 36.669.244 70.081.244 33.413 0 66.826-.04 70.02-.203 8.954-.422 14.153-1.12 19.901-2.606 15.852-4.09 28.977-14.838 36.12-29.575 3.591-7.409 5.412-14.614 6.236-25.07.18-2.28.255-38.626.255-74.924 0-36.304-.082-72.583-.26-74.863-.835-10.625-2.656-17.77-6.364-25.32-3.042-6.182-6.42-10.799-11.324-15.519-8.752-8.361-19.455-13.45-32.21-15.29-6.18-.894-7.41-1.158-39.033-1.213z" transform="translate(-71.816 -18.143)"/><path fill="url(#instagram_icon__g)" d="M204.15 18.143c-55.23 0-71.383.057-74.523.317-11.334.943-18.387 2.728-26.07 6.554-5.922 2.942-10.592 6.351-15.201 11.13-8.394 8.716-13.481 19.439-15.323 32.184-.895 6.188-1.156 7.45-1.209 39.056-.02 10.536 0 24.4 0 42.999 0 55.2.062 71.341.326 74.476.916 11.032 2.645 17.973 6.308 25.565 7 14.533 20.37 25.443 36.12 29.514 5.453 1.404 11.476 2.178 19.208 2.544 3.277.142 36.669.244 70.081.244 33.413 0 66.826-.04 70.02-.203 8.954-.422 14.153-1.12 19.901-2.606 15.852-4.09 28.977-14.838 36.12-29.575 3.591-7.409 5.412-14.614 6.236-25.07.18-2.28.255-38.626.255-74.924 0-36.304-.082-72.583-.26-74.863-.835-10.625-2.656-17.77-6.364-25.32-3.042-6.182-6.42-10.799-11.324-15.519-8.752-8.361-19.455-13.45-32.21-15.29-6.18-.894-7.41-1.158-39.033-1.213z" transform="translate(-71.816 -18.143)"/><path fill="url(#instagram_icon__h)" d="M204.15 18.143c-55.23 0-71.383.057-74.523.317-11.334.943-18.387 2.728-26.07 6.554-5.922 2.942-10.592 6.351-15.201 11.13-8.394 8.716-13.481 19.439-15.323 32.184-.895 6.188-1.156 7.45-1.209 39.056-.02 10.536 0 24.4 0 42.999 0 55.2.062 71.341.326 74.476.916 11.032 2.645 17.973 6.308 25.565 7 14.533 20.37 25.443 36.12 29.514 5.453 1.404 11.476 2.178 19.208 2.544 3.277.142 36.669.244 70.081.244 33.413 0 66.826-.04 70.02-.203 8.954-.422 14.153-1.12 19.901-2.606 15.852-4.09 28.977-14.838 36.12-29.575 3.591-7.409 5.412-14.614 6.236-25.07.18-2.28.255-38.626.255-74.924 0-36.304-.082-72.583-.26-74.863-.835-10.625-2.656-17.77-6.364-25.32-3.042-6.182-6.42-10.799-11.324-15.519-8.752-8.361-19.455-13.45-32.21-15.29-6.18-.894-7.41-1.158-39.033-1.213z" transform="translate(-71.816 -18.143)"/><path fill="#fff" d="M132.345 33.973c-26.716 0-30.07.117-40.563.594-10.472.48-17.62 2.136-23.876 4.567-6.47 2.51-11.958 5.87-17.426 11.335-5.472 5.464-8.834 10.948-11.354 17.412-2.44 6.252-4.1 13.397-4.57 23.858-.47 10.486-.593 13.838-.593 40.535 0 26.697.119 30.037.594 40.522.482 10.465 2.14 17.609 4.57 23.859 2.515 6.465 5.876 11.95 11.346 17.414 5.466 5.468 10.955 8.834 17.42 11.345 6.26 2.431 13.41 4.088 23.881 4.567 10.493.477 13.844.594 40.559.594 26.719 0 30.061-.117 40.555-.594 10.472-.48 17.63-2.136 23.888-4.567 6.468-2.51 11.948-5.877 17.414-11.345 5.472-5.464 8.834-10.949 11.354-17.412 2.419-6.252 4.079-13.398 4.57-23.858.472-10.486.595-13.828.595-40.525s-.123-30.047-.594-40.533c-.492-10.465-2.152-17.608-4.57-23.858-2.521-6.466-5.883-11.95-11.355-17.414-5.472-5.468-10.944-8.827-17.42-11.335-6.271-2.431-13.424-4.088-23.897-4.567-10.493-.477-13.834-.594-40.558-.594zm-8.825 17.715c2.62-.004 5.542 0 8.825 0 26.266 0 29.38.094 39.752.565 9.591.438 14.797 2.04 18.264 3.385 4.591 1.782 7.864 3.912 11.305 7.352 3.443 3.44 5.575 6.717 7.362 11.305 1.346 3.46 2.951 8.663 3.388 18.247.47 10.363.573 13.475.573 39.71 0 26.233-.102 29.346-.573 39.709-.44 9.584-2.042 14.786-3.388 18.247-1.783 4.587-3.919 7.854-7.362 11.292-3.443 3.441-6.712 5.57-11.305 7.352-3.463 1.352-8.673 2.95-18.264 3.388-10.37.47-13.486.573-39.752.573-26.268 0-29.38-.102-39.751-.573-9.592-.443-14.797-2.044-18.267-3.39-4.59-1.781-7.87-3.911-11.313-7.352-3.443-3.44-5.574-6.709-7.362-11.298-1.346-3.461-2.95-8.663-3.387-18.247-.472-10.363-.566-13.476-.566-39.726s.094-29.347.566-39.71c.438-9.584 2.04-14.786 3.387-18.25 1.783-4.588 3.919-7.865 7.362-11.305 3.443-3.441 6.722-5.57 11.313-7.357 3.468-1.351 8.675-2.949 18.267-3.389 9.075-.41 12.592-.532 30.926-.553zm61.337 16.322c-6.518 0-11.805 5.277-11.805 11.792 0 6.512 5.287 11.796 11.805 11.796 6.517 0 11.804-5.284 11.804-11.796 0-6.513-5.287-11.796-11.805-11.796zm-52.512 13.782c-27.9 0-50.519 22.603-50.519 50.482 0 27.879 22.62 50.471 50.52 50.471s50.51-22.592 50.51-50.471c0-27.879-22.613-50.482-50.513-50.482zm0 17.715c18.11 0 32.792 14.67 32.792 32.767 0 18.096-14.683 32.767-32.792 32.767-18.11 0-32.791-14.671-32.791-32.767 0-18.098 14.68-32.767 32.791-32.767z"/></svg>
 </symbol>
 <!-- facebook -->
 <symbol id="facebook" >
<svg viewBox="0 0 666.667 666.667"><defs><clipPath id="facebook_icon__a" clipPathUnits="userSpaceOnUse"><path d="M0 700h700V0H0Z"/></clipPath></defs><g clip-path="url(#facebook_icon__a)" transform="matrix(1.33333 0 0 -1.33333 -133.333 800)"><path d="M0 0c0 138.071-111.929 250-250 250S-500 138.071-500 0c0-117.245 80.715-215.622 189.606-242.638v166.242h-51.552V0h51.552v32.919c0 85.092 38.508 124.532 122.048 124.532 15.838 0 43.167-3.105 54.347-6.211V81.986c-5.901.621-16.149.932-28.882.932-40.993 0-56.832-15.528-56.832-55.9V0h81.659l-14.028-76.396h-67.631v-171.773C-95.927-233.218 0-127.818 0 0" style="fill:#0866ff;fill-opacity:1;fill-rule:nonzero;stroke:none" transform="translate(600 350)"/><path d="m0 0 14.029 76.396H-67.63v27.019c0 40.372 15.838 55.899 56.831 55.899 12.733 0 22.981-.31 28.882-.931v69.253c-11.18 3.106-38.509 6.212-54.347 6.212-83.539 0-122.048-39.441-122.048-124.533V76.396h-51.552V0h51.552v-166.242a250.559 250.559 0 0 1 60.394-7.362c10.254 0 20.358.632 30.288 1.831V0Z" style="fill:#fff;fill-opacity:1;fill-rule:nonzero;stroke:none" transform="translate(447.918 273.604)"/></g></svg>
 </symbol>
 <!-- whatsapp -->
 <symbol id="whatsapp" >
<svg fill="none" viewBox="0 0 360 362"><path fill="#25D366" fill-rule="evenodd" d="M307.546 52.566C273.709 18.684 228.706.017 180.756 0 81.951 0 1.538 80.404 1.504 179.235c-.017 31.594 8.242 62.432 23.928 89.609L0 361.736l95.024-24.925c26.179 14.285 55.659 21.805 85.655 21.814h.077c98.788 0 179.21-80.413 179.244-179.244.017-47.898-18.608-92.926-52.454-126.807v-.008Zm-126.79 275.788h-.06c-26.73-.008-52.952-7.194-75.831-20.765l-5.44-3.231-56.391 14.791 15.05-54.981-3.542-5.638c-14.912-23.721-22.793-51.139-22.776-79.286.035-82.14 66.867-148.973 149.051-148.973 39.793.017 77.198 15.53 105.328 43.695 28.131 28.157 43.61 65.596 43.593 105.398-.035 82.149-66.867 148.982-148.982 148.982v.008Zm81.719-111.577c-4.478-2.243-26.497-13.073-30.606-14.568-4.108-1.496-7.09-2.243-10.073 2.243-2.982 4.487-11.568 14.577-14.181 17.559-2.613 2.991-5.226 3.361-9.704 1.117-4.477-2.243-18.908-6.97-36.02-22.226-13.313-11.878-22.304-26.54-24.916-31.027-2.613-4.486-.275-6.91 1.959-9.136 2.011-2.011 4.478-5.234 6.721-7.847 2.244-2.613 2.983-4.486 4.478-7.469 1.496-2.991.748-5.603-.369-7.847-1.118-2.243-10.073-24.289-13.812-33.253-3.636-8.732-7.331-7.546-10.073-7.692-2.613-.13-5.595-.155-8.586-.155-2.991 0-7.839 1.118-11.947 5.604-4.108 4.486-15.677 15.324-15.677 37.361s16.047 43.344 18.29 46.335c2.243 2.991 31.585 48.225 76.51 67.632 10.684 4.615 19.029 7.374 25.535 9.437 10.727 3.412 20.49 2.931 28.208 1.779 8.604-1.289 26.498-10.838 30.228-21.298 3.73-10.46 3.73-19.433 2.613-21.298-1.117-1.865-4.108-2.991-8.586-5.234l.008-.017Z" clip-rule="evenodd"/></svg>
 </symbol>
 <!-- tiktok -->
 <symbol id="tiktok" >
<svg viewBox="0 0 32 32" fill="none" xmlns="http://www.w3.org/2000/svg"><g id="SVGRepo_bgCarrier" stroke-width="0"></g><g id="SVGRepo_tracerCarrier" stroke-linecap="round" stroke-linejoin="round"></g><g id="SVGRepo_iconCarrier"> <path d="M8.45095 19.7926C8.60723 18.4987 9.1379 17.7743 10.1379 17.0317C11.5688 16.0259 13.3561 16.5948 13.3561 16.5948V13.2197C13.7907 13.2085 14.2254 13.2343 14.6551 13.2966V17.6401C14.6551 17.6401 12.8683 17.0712 11.4375 18.0775C10.438 18.8196 9.90623 19.5446 9.7505 20.8385C9.74562 21.5411 9.87747 22.4595 10.4847 23.2536C10.3345 23.1766 10.1815 23.0889 10.0256 22.9905C8.68807 22.0923 8.44444 20.7449 8.45095 19.7926ZM22.0352 6.97898C21.0509 5.90039 20.6786 4.81139 20.5441 4.04639H21.7823C21.7823 4.04639 21.5354 6.05224 23.3347 8.02482L23.3597 8.05134C22.8747 7.7463 22.43 7.38624 22.0352 6.97898ZM28 10.0369V14.293C28 14.293 26.42 14.2312 25.2507 13.9337C23.6179 13.5176 22.5685 12.8795 22.5685 12.8795C22.5685 12.8795 21.8436 12.4245 21.785 12.3928V21.1817C21.785 21.6711 21.651 22.8932 21.2424 23.9125C20.709 25.246 19.8859 26.1212 19.7345 26.3001C19.7345 26.3001 18.7334 27.4832 16.9672 28.28C15.3752 28.9987 13.9774 28.9805 13.5596 28.9987C13.5596 28.9987 11.1434 29.0944 8.96915 27.6814C8.49898 27.3699 8.06011 27.0172 7.6582 26.6277L7.66906 26.6355C9.84383 28.0485 12.2595 27.9528 12.2595 27.9528C12.6779 27.9346 14.0756 27.9528 15.6671 27.2341C17.4317 26.4374 18.4344 25.2543 18.4344 25.2543C18.5842 25.0754 19.4111 24.2001 19.9423 22.8662C20.3498 21.8474 20.4849 20.6247 20.4849 20.1354V11.3475C20.5435 11.3797 21.2679 11.8347 21.2679 11.8347C21.2679 11.8347 22.3179 12.4734 23.9506 12.8889C25.1204 13.1864 26.7 13.2483 26.7 13.2483V9.91314C27.2404 10.0343 27.7011 10.0671 28 10.0369Z" fill="#EE1D52"></path> <path d="M26.7009 9.91314V13.2472C26.7009 13.2472 25.1213 13.1853 23.9515 12.8879C22.3188 12.4718 21.2688 11.8337 21.2688 11.8337C21.2688 11.8337 20.5444 11.3787 20.4858 11.3464V20.1364C20.4858 20.6258 20.3518 21.8484 19.9432 22.8672C19.4098 24.2012 18.5867 25.0764 18.4353 25.2553C18.4353 25.2553 17.4337 26.4384 15.668 27.2352C14.0765 27.9539 12.6788 27.9357 12.2604 27.9539C12.2604 27.9539 9.84473 28.0496 7.66995 26.6366L7.6591 26.6288C7.42949 26.4064 7.21336 26.1717 7.01177 25.9257C6.31777 25.0795 5.89237 24.0789 5.78547 23.7934C5.78529 23.7922 5.78529 23.791 5.78547 23.7898C5.61347 23.2937 5.25209 22.1022 5.30147 20.9482C5.38883 18.9122 6.10507 17.6625 6.29444 17.3494C6.79597 16.4957 7.44828 15.7318 8.22233 15.0919C8.90538 14.5396 9.6796 14.1002 10.5132 13.7917C11.4144 13.4295 12.3794 13.2353 13.3565 13.2197V16.5948C13.3565 16.5948 11.5691 16.028 10.1388 17.0317C9.13879 17.7743 8.60812 18.4987 8.45185 19.7926C8.44534 20.7449 8.68897 22.0923 10.0254 22.991C10.1813 23.0898 10.3343 23.1775 10.4845 23.2541C10.7179 23.5576 11.0021 23.8221 11.3255 24.0368C12.631 24.8632 13.7249 24.9209 15.1238 24.3842C16.0565 24.0254 16.7586 23.2167 17.0842 22.3206C17.2888 21.7611 17.2861 21.1978 17.2861 20.6154V4.04639H20.5417C20.6763 4.81139 21.0485 5.90039 22.0328 6.97898C22.4276 7.38624 22.8724 7.7463 23.3573 8.05134C23.5006 8.19955 24.2331 8.93231 25.1734 9.38216C25.6596 9.61469 26.1722 9.79285 26.7009 9.91314Z" fill="#ffffff"></path> <path d="M4.48926 22.7568V22.7594L4.57004 22.9784C4.56076 22.9529 4.53074 22.8754 4.48926 22.7568Z" fill="#69C9D0"></path> <path d="M10.5128 13.7916C9.67919 14.1002 8.90498 14.5396 8.22192 15.0918C7.44763 15.7332 6.79548 16.4987 6.29458 17.354C6.10521 17.6661 5.38897 18.9168 5.30161 20.9528C5.25223 22.1068 5.61361 23.2983 5.78561 23.7944C5.78543 23.7956 5.78543 23.7968 5.78561 23.798C5.89413 24.081 6.31791 25.0815 7.01191 25.9303C7.2135 26.1763 7.42963 26.4111 7.65924 26.6334C6.92357 26.1457 6.26746 25.5562 5.71236 24.8839C5.02433 24.0451 4.60001 23.0549 4.48932 22.7626C4.48919 22.7605 4.48919 22.7584 4.48932 22.7564V22.7527C4.31677 22.2571 3.95431 21.0651 4.00477 19.9096C4.09213 17.8736 4.80838 16.6239 4.99775 16.3108C5.4985 15.4553 6.15067 14.6898 6.92509 14.0486C7.608 13.4961 8.38225 13.0567 9.21598 12.7484C9.73602 12.5416 10.2778 12.3891 10.8319 12.2934C11.6669 12.1537 12.5198 12.1415 13.3588 12.2575V13.2196C12.3808 13.2349 11.4148 13.4291 10.5128 13.7916Z" fill="#69C9D0"></path> <path d="M20.5438 4.04635H17.2881V20.6159C17.2881 21.1983 17.2881 21.76 17.0863 22.3211C16.7575 23.2167 16.058 24.0253 15.1258 24.3842C13.7265 24.923 12.6326 24.8632 11.3276 24.0368C11.0036 23.823 10.7187 23.5594 10.4844 23.2567C11.5962 23.8251 12.5913 23.8152 13.8241 23.341C14.7558 22.9821 15.4563 22.1734 15.784 21.2774C15.9891 20.7178 15.9864 20.1546 15.9864 19.5726V3H20.4819C20.4819 3 20.4315 3.41188 20.5438 4.04635ZM26.7002 8.99104V9.9131C26.1725 9.79263 25.6609 9.61447 25.1755 9.38213C24.2352 8.93228 23.5026 8.19952 23.3594 8.0513C23.5256 8.1559 23.6981 8.25106 23.8759 8.33629C25.0192 8.88339 26.1451 9.04669 26.7002 8.99104Z" fill="#69C9D0"></path> </g></svg><!-- github -->
 <symbol id="github" >
  <svg viewBox="0 0 1024 1024" fill="none"><path fill-rule="evenodd" clip-rule="evenodd" d="M8 0C3.58 0 0 3.58 0 8C0 11.54 2.29 14.53 5.47 15.59C5.87 15.66 6.02 15.42 6.02 15.21C6.02 15.02 6.01 14.39 6.01 13.72C4 14.09 3.48 13.23 3.32 12.78C3.23 12.55 2.84 11.84 2.5 11.65C2.22 11.5 1.82 11.13 2.49 11.12C3.12 11.11 3.57 11.7 3.72 11.94C4.44 13.15 5.59 12.81 6.05 12.6C6.12 12.08 6.33 11.73 6.56 11.53C4.78 11.33 2.92 10.64 2.92 7.58C2.92 6.71 3.23 5.99 3.74 5.43C3.66 5.23 3.38 4.41 3.82 3.31C3.82 3.31 4.49 3.1 6.02 4.13C6.66 3.95 7.34 3.86 8.02 3.86C8.7 3.86 9.38 3.95 10.02 4.13C11.55 3.09 12.22 3.31 12.22 3.31C12.66 4.41 12.38 5.23 12.3 5.43C12.81 5.99 13.12 6.7 13.12 7.58C13.12 10.65 11.25 11.33 9.47 11.53C9.76 11.78 10.01 12.26 10.01 13.01C10.01 14.08 10 14.94 10 15.21C10 15.42 10.15 15.67 10.55 15.59C13.71 14.53 16 11.53 16 8C16 3.58 12.42 0 8 0Z" transform="scale(64)" fill="#ffff"/></svg>

 </symbol>
</svg>
